<?xml version="1.0" encoding="utf-8"?>
<!-- Generator: Adobe Illustrator 16.0.0, SVG Export Plug-In . SVG Version: 6.00 Build 0)  -->
<!DOCTYPE svg PUBLIC "-//W3C//DTD SVG 1.1//EN" "http://www.w3.org/Graphics/SVG/1.1/DTD/svg11.dtd" [
	<!ENTITY ns_extend "http://ns.adobe.com/Extensibility/1.0/">
	<!ENTITY ns_ai "http://ns.adobe.com/AdobeIllustrator/10.0/">
	<!ENTITY ns_graphs "http://ns.adobe.com/Graphs/1.0/">
	<!ENTITY ns_vars "http://ns.adobe.com/Variables/1.0/">
	<!ENTITY ns_imrep "http://ns.adobe.com/ImageReplacement/1.0/">
	<!ENTITY ns_sfw "http://ns.adobe.com/SaveForWeb/1.0/">
	<!ENTITY ns_custom "http://ns.adobe.com/GenericCustomNamespace/1.0/">
	<!ENTITY ns_adobe_xpath "http://ns.adobe.com/XPath/1.0/">
]>
<svg version="1.1" id="Layer_1" xmlns:x="&ns_extend;" xmlns:i="&ns_ai;" xmlns:graph="&ns_graphs;"
	 xmlns="http://www.w3.org/2000/svg" xmlns:xlink="http://www.w3.org/1999/xlink" x="0px" y="0px" width="323.802px"
	 height="281.328px" viewBox="0 0 323.802 281.328" enable-background="new 0 0 323.802 281.328" xml:space="preserve">
<metadata>
	<sfw  xmlns="&ns_sfw;">
		<slices></slices>
		<sliceSourceBounds  y="-537.446" x="142.696" width="323.802" height="281.328" bottomLeftOrigin="true"></sliceSourceBounds>
	</sfw>
</metadata>
<path fill-rule="evenodd" clip-rule="evenodd" fill="#ED1C24" d="M316.436,157.406c-6.342-25.938-28.82-63.403-97.986-63.403
	c-14.409,0-52.45,4.035-59.367,4.035c0.576-2.306,7.492-21.903,8.646-24.785c-4.611-2.306-16.716-4.611-34.007-5.187
	c-40.348-1.153-89.34,16.138-119.888,38.617C10.374,117.059,4.035,133.198,0,142.995c31.701-16.714,78.388-34.006,114.124-37.465
	c24.208-2.305,33.431,2.306,36.313,4.036c2.881,1.152-20.75,9.222-20.173,18.444c0,11.527,48.416-1.153,80.117,0
	c54.757,1.729,78.964,20.751,87.611,47.841c10.951,33.432-8.647,65.708-32.854,77.811
	C295.109,246.167,327.387,202.939,316.436,157.406L316.436,157.406z"/>
<path fill-rule="evenodd" clip-rule="evenodd" fill="#00AEEF" d="M133.721,68.066c17.292,0.575,29.396,2.881,34.007,5.187
	c-1.153,2.882-8.07,22.479-8.646,24.785c6.917,0,44.958-4.035,59.367-4.035c69.166,0,91.645,37.464,97.986,63.403
	c1.729,7.492,2.305,14.409,2.305,21.326c4.035-19.022,4.035-42.077,1.729-54.757c-4.033-25.938-27.089-62.25-90.493-63.403
	c-14.409,0-52.45,4.035-58.79,4.035c0.575-2.306,7.493-21.903,8.069-24.784c-4.033-2.306-14.409-6.341-31.701-6.917
	C106.631,32.33,57.638,49.045,27.089,71.524c-3.458,10.375-9.222,25.361-13.257,35.16C44.381,84.205,93.373,66.913,133.721,68.066
	L133.721,68.066z"/>
<path fill-rule="evenodd" clip-rule="evenodd" fill="#FFFFFF" d="M319.319,83.051c-5.765-20.75-28.243-54.179-77.813-55.333
	c-14.409,0-50.721,2.882-58.792,3.458c0.577-1.729,6.34-19.021,7.493-21.902c-3.458-4.611-13.834-8.646-31.124-9.224
	C118.159-1.101,69.742,17.344,39.194,40.399c-3.459,10.375-12.105,32.279-12.105,31.125c30.548-22.479,79.542-39.194,120.465-38.617
	c17.292,0.575,27.668,4.611,31.701,6.917c-0.576,2.881-7.494,22.479-8.069,24.784c6.34,0,44.381-4.035,58.79-4.035
	c63.404,1.152,86.46,37.465,90.493,63.403c1.153,6.34,1.729,16.139,1.153,26.514C325.081,128.586,324.505,104.378,319.319,83.051
	L319.319,83.051z"/>
<path fill-rule="evenodd" clip-rule="evenodd" fill="#FFFFFF" d="M91.646,138.385c-14.411,0.577-29.396,8.646-40.348,21.325
	c-8.646,10.952-13.833,23.633-13.833,36.891c0,2.881,0.576,5.187,0.576,8.067l0.576,2.307l2.307,1.151
	c1.729,0.578,2.881,1.729,3.458,2.307l-2.306,4.609l-6.34,13.836c-2.882,7.493-4.611,16.138-4.611,25.36
	c0,8.645,1.729,17.867,7.492,24.783l1.153,2.307h35.737l0.576-3.458c0-1.151,0.576-2.307,0.576-3.458
	c0-2.885-0.576-6.916-2.304-9.223c-1.73-2.88-3.459-3.458-4.612-4.035c-0.576,0-1.729-1.151-1.729-2.88v-0.578
	c0.577-2.307,4.035-5.187,10.951-8.067l0.577-0.577c3.459,5.765,6.917,11.529,8.646,14.987l3.459,5.76
	c2.881,4.613,6.916,8.649,11.527,10.951l1.153,0.578h37.464v-5.187c0-9.223-2.305-14.41-6.916-15.561l-3.459-0.578
	c-4.034-1.155-4.034-1.155-4.611-2.307v-1.151c0-1.729,0.577-4.613,1.729-6.916c0,0,0.577-3.462,1.153-6.342
	c4.035-1.151,8.646-1.729,12.681-1.729c-1.152,5.187-1.729,10.951-1.729,15.56c0,5.191,0.577,9.223,0.577,11.529l0,0v0.578
	c1.729,4.035,8.069,9.796,14.409,11.524l1.152,0.578h37.467v-5.187c-1.153-10.374-4.036-15.561-9.223-15.561
	c-5.189,0-8.069-2.307-8.069-2.885s2.305-4.035,9.798-10.951c4.611,11.529,20.174,28.245,30.548,34.005l0.577,0.578h39.194
	l-1.153-5.765c-2.307-8.645-6.34-14.409-12.68-15.561c-7.494-1.155-9.799-2.307-11.527-5.187c-1.153-1.155-2.307-6.343-3.46-10.378
	c-1.151-4.609-2.305-9.223-3.458-12.681c-0.575-1.729-1.153-2.88-1.729-4.035l0.575,1.155l2.307-0.578
	c6.916-0.577,24.785-4.608,31.125-11.524c4.611,0.573,10.951,0.573,14.409-1.155c2.307-1.151,6.341-6.338,6.916-9.223v-0.573
	l1.729-0.578c5.189-3.459,11.529-11.528,11.529-16.14v-0.576c0-2.306-1.153-4.035-3.458-4.61l-1.153-0.577
	c-4.035-1.729-8.646-3.459-13.256-4.61c-1.73-8.07-12.683-12.104-21.904-15.563c-1.729-3.459-5.188-6.34-9.221-8.069
	c-4.035-1.729-8.646-1.152-12.104,0.577c-12.104-5.764-38.041-14.41-52.452-16.14l-3.458-0.575l-1.153,3.458
	c-0.575,0.576-1.729,4.035-4.611,4.611c-9.797,1.152-20.173-1.152-31.701-3.458C123.923,141.267,109.514,137.809,91.646,138.385
	L91.646,138.385L91.646,138.385z M277.242,201.787L277.242,201.787L277.242,201.787z"/>
<path fill-rule="evenodd" clip-rule="evenodd" fill="#00529C" d="M277.818,201.211c5.765-3.458,11.526-12.104,9.222-13.257
	c-4.61-1.729-12.104-5.188-17.869-6.341c1.729-5.763-5.762-9.222-20.749-14.409c-1.151-5.764-10.376-12.104-17.867-6.34
	c-10.376-5.765-38.619-14.986-53.028-16.717c-1.153,2.307-3.457,6.342-8.068,6.918c-21.903,3.459-43.806-9.222-77.236-8.07
	c-25.938,1.152-54.181,28.244-49.569,61.096c3.458,1.155,7.494,4.613,5.764,8.648c-1.729,4.036-4.611,8.067-8.646,17.867
	c-3.458,9.801-8.646,31.125,2.306,46.112h29.396c0.576-2.307,0.576-10.378-2.882-10.951c-2.881-0.578-5.764-4.613-5.187-8.649
	c1.152-4.608,5.187-8.066,13.833-12.103c-1.729-6.338-5.763-13.258-6.34-15.56c3.459-0.578,21.902,34.005,24.208,38.04
	c2.881,4.031,6.34,7.494,10.375,9.223h32.277c0-3.458-0.577-10.951-4.035-12.106c-4.611-1.151-9.798-0.573-10.951-5.765
	c-1.153-5.187,2.306-11.525,3.458-19.597c6.917-2.302,17.293-1.729,21.327-2.302c-3.458,10.947-2.305,25.934-1.73,31.121
	c0.578,1.729,5.188,6.342,11.528,8.648h32.279c0-2.885-1.153-11.529-4.611-11.529c-8.069-0.577-12.681-4.035-12.681-7.493
	c0.576-4.035,5.187-8.645,12.103-14.987c2.883-2.302,10.951-13.253,14.411-11.524c-4.035,2.88-6.34,8.645-8.646,12.681
	c3.458,10.373,19.021,27.089,28.82,32.854h32.276c-0.575-3.458-2.882-11.529-8.645-12.106c-8.069-1.729-12.104-2.881-14.987-6.916
	c-2.307-4.035-4.035-17.289-6.915-24.783c-5.189-10.951-5.765-15.564-0.578-18.444c0.578,1.729,4.036,8.066,5.765,9.796
	c8.646-1.151,27.09-6.916,29.396-12.103c5.762,0.577,11.526,0.577,14.409-0.578c0.575,0,5.187-5.76,4.035-6.916
	c-0.577-0.577-1.73-0.577-3.46-0.577C273.207,203.518,276.665,201.787,277.818,201.211L277.818,201.211z"/>
<path fill-rule="evenodd" clip-rule="evenodd" fill="#FFFFFF" d="M262.833,186.802c-1.731,0-7.493,4.034-9.225,4.034
	c-1.729-1.729-6.916-9.223,9.225-7.493c2.305,0,0.576-2.305-1.153-3.459c-3.46-1.729-9.8-4.033-17.869-6.34
	c-1.729-6.916-9.798-9.799-12.103-1.729c-9.223-5.188-29.974-13.257-44.383-15.562c-1.729,1.153-2.305,6.916-12.103,8.646
	c-12.105,2.306-36.313-5.188-63.979-8.646c-27.667-3.458-49.57,10.375-52.451,35.735c6.339-1.152,19.597-1.729,28.243,9.799
	c26.513,33.429,21.326,45.535,25.937,47.842c5.188-11.528,13.256-37.467,5.188-53.028c2.881-1.153,7.493,2.881,12.104,6.917
	c5.187,5.187,13.833,9.222,21.326,8.645c2.882-10.951,15.562-21.903,19.022-21.326c-6.918,11.528-10.376,18.446-13.835,31.699
	c-5.187,16.143-3.458,34.583,0,35.161c1.153-5.187,3.459-14.987,11.528-28.24c12.68-20.174,36.89-37.468,54.757-33.434
	c-5.188,1.153-9.223,6.342-10.376,8.646c6.918,1.729,10.376,4.614,13.258,8.071c6.34-5.765,18.445-4.613,26.514-8.071
	c0-2.304,0.576-5.187,4.611-5.763c5.188-0.576,12.103,1.729,16.716-0.576c1.729-1.153,5.763-5.764,5.763-8.646
	C277.818,188.53,270.324,186.802,262.833,186.802L262.833,186.802z"/>
</svg>
