<?xml version="1.0" encoding="UTF-8"?>
<!DOCTYPE svg PUBLIC "-//W3C//DTD SVG 1.1//EN" "http://www.w3.org/Graphics/SVG/1.1/DTD/svg11.dtd">
<!-- Creator: CorelDRAW X6 -->
<svg xmlns="http://www.w3.org/2000/svg" xml:space="preserve" width="137mm" height="115.5mm" version="1.1" style="shape-rendering:geometricPrecision; text-rendering:geometricPrecision; image-rendering:optimizeQuality; fill-rule:evenodd; clip-rule:evenodd"
viewBox="0 0 13700 11550"
 xmlns:xlink="http://www.w3.org/1999/xlink">
 <defs>
  <style type="text/css">
   <![CDATA[
    .fil2 {fill:#727271}
    .fil6 {fill:#B2B3B3}
    .fil1 {fill:#0C54A0}
    .fil0 {fill:#E41D37}
    .fil4 {fill:url(#id0)}
    .fil3 {fill:url(#id1)}
    .fil5 {fill:url(#id2)}
   ]]>
  </style>
  <linearGradient id="id0" gradientUnits="userSpaceOnUse" x1="1704.03" y1="6539.42" x2="4160.41" y2="10070.5">
   <stop offset="0" style="stop-color:#E41D37"/>
   <stop offset="1" style="stop-color:#AF212E"/>
  </linearGradient>
  <linearGradient id="id1" gradientUnits="userSpaceOnUse" x1="2653.57" y1="6012.95" x2="4453.35" y2="8617.35">
   <stop offset="0" style="stop-color:#00A0E3"/>
   <stop offset="1" style="stop-color:#0C54A0"/>
  </linearGradient>
  <linearGradient id="id2" gradientUnits="userSpaceOnUse" x1="4058.2" y1="6488.83" x2="5221.32" y2="8111.73">
   <stop offset="0" style="stop-color:#FEFEFE"/>
   <stop offset="1" style="stop-color:#D9DADA"/>
  </linearGradient>
 </defs>
 <g id="Слой_x0020_1">
  <metadata id="CorelCorpID_0Corel-Layer"/>
  <g id="_679498224">
   <g>
    <g>
     <path class="fil0" d="M6998 9745l0 0 188 -269c-179,-125 -358,-251 -537,-376l94 -134c179,125 358,251 537,376 63,-90 125,-179 188,-269l0 0c-179,-125 -358,-251 -537,-376l94 -134c179,125 493,345 672,470l94 -134 0 0 134 94 -94 134 -134 -94c-219,313 -439,627 -658,940l-67 -47 -44 -31 -23 -16c-179,-125 -358,-251 -537,-376l94 -134c179,125 358,251 537,376z"/>
     <path class="fil0" d="M5285 11048l74 -106 20 -28 282 -403 20 -28 74 -106 90 63 44 31 403 282 44 31 90 63 -57 81 -37 54 -282 403 -38 54 -57 81 -99 -69 -36 -25 -403 -282 -36 -25 -99 -69zm913 -161l-403 -282 -282 403 403 282 282 -403z"/>
     <path class="fil0" d="M6523 10423l51 -73 71 -102 28 -40 66 -94 -134 -94 -63 90 -31 44 -94 134 -31 45 -63 90 134 94 66 -94zm-294 134l-33 -23 -69 -48 -33 -23 -134 -94 -134 -94 94 -134 71 -102 23 -33 94 -134 23 -33 71 -102 94 -134 134 94 -94 134 -71 102 -23 33 -94 134 -23 33 -71 102 134 94 63 -90 31 -45 94 -134 31 -44 63 -90 94 -134 102 71 33 23 134 94 134 94 -94 134 -66 94 -28 40 -71 102 -51 73 -66 94 -94 134 -134 -94 -134 -94z"/>
     <polygon class="fil0" points="7752,8668 7752,8668 7846,8534 7940,8400 8034,8265 8072,8211 8128,8131 8262,8225 8206,8305 8168,8359 8074,8494 7980,8628 7886,8762 7886,8762 7848,8817 7792,8897 7685,8822 7658,8802 7523,8708 7389,8614 7255,8520 7227,8501 7120,8426 7176,8346 7214,8292 7215,8292 7309,8158 7403,8023 7497,7889 7535,7835 7591,7755 7725,7849 7669,7929 7631,7983 7537,8117 7443,8252 7349,8386 7349,8386 7483,8480 7483,8480 7483,8480 7577,8346 7671,8211 7765,8077 7803,8023 7859,7943 7994,8037 7938,8117 7900,8171 7806,8305 7711,8440 7617,8574 7617,8574 7617,8574 "/>
     <path class="fil0" d="M7661 7654l60 -85 34 -49 94 -134 94 -134 94 -134 0 0 34 -49 60 -85 92 65 42 29 134 94 42 29 92 65 -60 85 -34 49 0 0 -94 134 -94 134 -94 134 0 0 134 94 34 23 101 71 -94 134 -101 -71 -34 -24 -134 -94 -134 -94 -134 -94 -34 -24 -101 -71zm645 -349l-134 -94 0 0 -94 134 -94 134 -94 134 134 94 0 0 94 -134 94 -134 94 -134 0 0z"/>
     <path class="fil0" d="M8202 6882l78 -112 16 -23 94 -134 94 -134 94 -134 0 0 16 -23 78 -112 105 73 29 21 134 94 134 94 134 94 29 21 105 73 -78 112 -16 23 0 0 -94 134 -94 134 -94 134 -16 23 -78 112 -105 -73 -29 -21 -134 -94 -134 -94 -134 -94 -29 -21 -105 -73zm913 -161l-134 -94 -134 -94 -134 -94 0 0 -94 134 -94 134 -94 134 134 94 134 94 134 94 94 -134 94 -134 94 -134 0 0z"/>
     <path class="fil0" d="M8743 6109c157,-224 313,-448 470,-672l134 94 -66 94 -28 40 -94 134 -94 134 -94 134 134 94 134 94 134 94 94 -134 94 -134 94 -134 28 -40 66 -94 134 94c-157,224 -313,448 -470,672l-97 -68 -38 -26 -134 -94 -134 -94 -134 -94 -38 -26 -97 -68z"/>
     <path class="fil0" d="M9824 4565l94 -134 109 76 25 18 134 94 134 94 134 94 25 18 109 76 -94 134 -109 -76 -25 -18 -134 -94 -134 -94 -134 -94 -25 -18 -109 -76zm1033 -278l109 76 -94 134 -109 -76 -25 -18 -134 -94 -134 -94 -134 -94 -25 -18 -109 -76 94 -134 109 76 25 18 134 94 134 94 134 94 25 18zm-616 -31l94 -134 134 94 -94 134 -134 -94zm40 228l94 -134 134 94 -94 134 -134 -94zm40 228l94 -134 134 94 -94 134 -134 -94z"/>
     <path class="fil0" d="M10996 4034l54 38 80 56 -94 134 -80 -56 -54 -38 -134 -94 -134 -94 -134 -94 -54 -38 -80 -56 94 -134 80 56 54 38 134 94 134 94 94 -134 134 94 -94 134zm431 -499l80 56 -94 134 -80 -56 -54 -38 -134 -94 -134 -94 -134 -94 -54 -38 -80 -56 94 -134 80 56 54 38 134 94 134 94 134 94 54 38zm-646 -52l94 -134 134 94 -94 134 -134 -94zm40 228l94 -134 134 94 -94 134 -134 -94z"/>
     <rect class="fil0" transform="matrix(1.99916 -2.8551 2.8551 1.99916 10418.9 3429.71)" width="47.04" height="47.04"/>
     <polygon class="fil0" points="9284,5337 9346,5248 9378,5203 9378,5203 9472,5068 9566,4934 9660,4800 9691,4755 9754,4665 9888,4760 9826,4849 9794,4894 9700,5028 9606,5162 9512,5297 9512,5297 9646,5391 9781,5485 9915,5579 9915,5579 10009,5445 10103,5310 10197,5176 10229,5131 10291,5042 10425,5136 10363,5225 10331,5270 10237,5404 10143,5539 10049,5673 10049,5673 10017,5718 9955,5807 9863,5743 9821,5713 9687,5619 9552,5525 9418,5431 9376,5402 "/>
     <polygon class="fil0" points="10906,3020 10964,2938 11000,2886 11094,2751 11188,2617 11282,2483 11319,2431 11376,2349 11510,2443 11453,2525 11416,2577 11322,2711 11228,2846 11134,2980 11269,3074 11403,3168 11537,3262 11631,3128 11725,2993 11819,2859 11856,2807 11913,2725 12048,2819 11990,2901 11954,2953 11860,3087 11766,3222 11672,3356 11635,3408 11577,3490 11473,3417 11443,3396 11309,3302 11175,3208 11040,3114 11011,3094 "/>
     <path class="fil0" d="M12078 2490l27 19 107 75 -94 134 -107 -75 -27 -19 -134 -94 -134 -94 -134 -94 -27 -19 -107 -75 94 -134 107 75 27 19 134 94 0 0 94 -134 32 -46 62 -89 134 94 -62 89 -32 46 -94 134 0 0 134 94zm-255 -779l94 -134 134 94 -94 134 134 94 -94 134 -134 -94 94 -134 -134 -94zm537 376l94 -134 134 94 -94 134 -134 -94 -94 134 -134 -94 94 -134 134 94z"/>
     <path class="fil0" d="M11987 1475l94 -134 67 47 67 47 134 94 134 94 134 94 67 47 67 47 -94 134 -67 -47 -67 -47 -134 -94 -134 -94 -134 -94 -67 -47 -67 -47zm1074 -248l67 47 -94 134 -67 -47 -67 -47 -134 -94 -134 -94 -134 -94 -67 -47 -67 -47 94 -134 67 47 67 47 134 94 134 94 134 94 67 47zm-658 -60l94 -134 134 94 -94 134 -134 -94zm40 228l94 -134 134 94 -94 134 -134 -94zm40 228l94 -134 134 94 -94 134 -134 -94z"/>
     <path class="fil0" d="M13160 945l67 47 67 47 -94 134 -67 -47 -67 -47 -134 -94 -134 -94 -134 -94 -67 -47 -67 -47 94 -134 67 47 67 47 134 94 134 94 94 -134 134 94 -94 134zm443 -490l67 47 -94 134 -67 -47 -67 -47 -134 -94 -134 -94 -134 -94 -67 -47 -67 -47 94 -134 67 47 67 47 134 94 134 94 134 94 67 47zm-658 -60l94 -134 134 94 -94 134 -134 -94zm40 228l94 -134 134 94 -94 134 -134 -94z"/>
     <rect class="fil0" transform="matrix(1.99916 -2.8551 2.8551 1.99916 12582 340.463)" width="47.04" height="47.04"/>
    </g>
    <g>
     <path class="fil1" d="M8240 9611l115 81 153 107 -94 134 -153 -107 -115 -81 -38 -26 -97 -68 -134 -94 -134 -94 71 -102 23 -33 94 -134 94 -134 71 -101 24 -34 71 -101 134 94 134 94 134 94 -71 101 -24 34 -71 101 -94 134 -94 134zm-269 -188l134 94 94 -134 94 -134 71 -101 -134 -94 -71 101 -94 134 -94 134z"/>
     <polygon class="fil1" points="7095,10960 7118,10927 7212,10792 7306,10658 7172,10564 7037,10470 7132,10336 7266,10430 7400,10524 7492,10588 7534,10618 7647,10697 7803,10806 7709,10940 7553,10831 7440,10752 7346,10887 7252,11021 7229,11054 7158,11155 7275,11237 7427,11343 7333,11478 7180,11371 7064,11289 7028,11264 6930,11195 6796,11101 6661,11007 6755,10873 6890,10967 7024,11061 "/>
     <path class="fil1" d="M8194 9929l150 105 -94 134 -150 -105 -119 -83 -94 134 -94 134 -23 33 -71 102 119 83 150 105 -94 134 -150 -105 -119 -83 -31 -22 -103 -72 -134 -94 -134 -94 94 -134 71 -102 23 -33 94 -134 94 -134 94 -134 134 94 134 94 103 72 31 22 119 83zm-441 91l94 -134 -134 -94 -94 134 -94 134 -23 33 -71 102 134 94 71 -102 23 -33 94 -134z"/>
     <path class="fil1" d="M8549 8312l88 -125 19 -27 75 -107 134 94 134 94 90 63 45 31 112 78 157 110 -75 107 -19 27 -88 125 -107 152 -88 125 -19 27 -75 107 -157 -110 -112 -78 -45 -31 -90 -63 -134 -94 -134 -94 75 -107 19 -27 88 -125 107 -152zm491 157l-45 -31 -90 -63 -134 -94 -88 125 -107 152 -88 125 134 94 90 63 45 31 112 78 22 16 88 -125 107 -152 88 -125 -22 -16 -112 -78z"/>
     <path class="fil1" d="M9389 7112l94 -134 134 94 134 94c94,-134 188,-269 282,-403l-134 -94 -134 -94 94 -134c224,157 448,314 672,470l-94 134 -152 -107 -116 -81c-94,134 -188,269 -282,403l116 81 152 107 -94 134c-224,-157 -448,-314 -672,-470z"/>
     <path class="fil1" d="M10480 6125l94 -134 134 94 -94 134 -94 134 -94 134 134 94 94 -134 94 -134 94 -134 134 94 -94 134 -94 134 -94 134 -94 134c-224,-157 -448,-313 -672,-470l94 -134 134 94 134 94 94 -134 94 -134z"/>
     <polygon class="fil1" points="10708,6085 10802,5951 10689,5871 10544,5770 10400,5669 10494,5534 10638,5636 10783,5737 10897,5816 10928,5838 11031,5910 11165,6004 11071,6139 10937,6045 10843,6179 "/>
     <path class="fil1" d="M11437 5044l57 40 77 54 134 94 -94 134 -134 -94 -77 -54 -57 -40 -96 -68 -38 -27 -94 134 134 94 -94 134 -134 -94 94 -134 -134 -94 94 -134 -134 -94 94 -134 153 107 153 107 96 68zm-242 631l134 94 -94 134 -134 -94 -88 -61 -46 -33 -103 -72 -150 -105 -150 -105 94 -134 150 105 150 105 103 72 94 -134 134 94 -94 134z"/>
     <polygon class="fil1" points="10618,5071 10712,4937 10846,5031 10752,5165 "/>
     <path class="fil1" d="M9402 8522l93 -133 -134 -94c-185,-129 -132,-93 -403,-282l-134 -94c157,-224 314,-448 470,-672l149 105c129,91 259,181 388,272l134 94 93 -133 134 94 -94 134 -134 -94c-141,201 -328,468 -469,670l134 94 -94 134 -134 -94zm53 -362c94,-134 188,-269 282,-403 -129,-91 -259,-181 -388,-272l-15 -10c-94,134 -188,269 -282,403 190,133 253,177 403,282z"/>
    </g>
    <g>
     <path class="fil2" d="M8680 11518l-134 -94 -537 -376 282 -403 -134 -94 94 -134 134 94 94 -134 188 -269c294,206 408,286 672,470l-282 403 134 94 -94 134 -134 -94c-120,172 -114,162 -282,403zm148 -497l-403 -282 -188 269 403 282c118,-168 70,-100 188,-269zm-121 -685l-188 269 269 188 134 94 188 -269c-148,-104 -224,-157 -403,-282z"/>
     <path class="fil2" d="M10666 7253l94 -134 134 94 -188 269 537 376 -94 134c-179,-125 -358,-251 -537,-376 -63,90 -125,179 -188,269l-134 -94c125,-179 251,-358 376,-537z"/>
     <polygon class="fil2" points="10827,8167 10961,8261 10867,8396 10598,8207 10598,8207 10504,8342 10504,8342 10504,8342 10316,8610 10316,8610 10450,8704 10450,8705 10450,8704 10585,8799 10491,8933 10356,8839 10356,8839 10356,8839 10222,8745 10222,8745 9819,8463 9913,8328 10182,8516 10370,8248 10370,8248 10370,8248 10464,8113 10195,7925 10289,7791 10424,7885 10692,8073 10692,8073 "/>
     <path class="fil2" d="M9278 9235c157,-224 313,-448 470,-672 224,157 448,313 672,470 -157,224 -313,448 -470,672l-672 -470zm510 -443l-282 403 403 282 0 0c94,-134 188,-269 282,-403l-403 -282z"/>
     <path class="fil2" d="M9248 9564l0 0 -94 134 -188 269 134 94 94 -134 188 -269 -134 -94zm-40 -228l403 282 -94 134 -282 403 134 94 134 94 -94 134 -269 -188 -403 -282c141,-201 277,-396 470,-672z"/>
    </g>
   </g>
   <g>
    <polygon class="fil3" points="2578,5084 5782,9661 5146,10571 1304,5084 "/>
    <g>
     <polygon class="fil4" points="1304,5084 5146,10571 4510,11481 30,5084 "/>
     <polygon class="fil5" points="3852,5084 6419,8751 5782,9661 2578,5084 "/>
     <polygon class="fil6" points="6495,8641 6419,8751 3852,5084 4004,5084 "/>
    </g>
   </g>
  </g>
 </g>
</svg>
